# xmcd
#
# Track frame offsets:
#	150
#	30350
#	59252
#	96482
#	142027
#	183110
#	216340
#	238962
#	286645
#	327655
#
# Disc length: 4669 seconds
#
# Revision: 0
# Processed by: cddbd v1.5.2PL0 Copyright (c) Steve Scherf et al.
# Submitted via: EasyCDDAExtractor 12.0.1.1
#
DISCID=96123b0a
DTITLE=Harper Lee - To Kill A Mockingbird [CD05 of 11)
DYEAR=2006
DGENRE=Audiobook
TTITLE0=Part Two
TTITLE1=If Calpurnia had ever
TTITLE2=First Purchase
TTITLE3=The church was
TTITLE4=Thirteen
TTITLE5=Aunt Alexandra's theory
TTITLE6=Before bedtime I was
TTITLE7=Fourteen
TTITLE8=I switched on the light
TTITLE9=I must have slept
EXTD=YEAR: 2006\n
EXTT0=
EXTT1=
EXTT2=
EXTT3=
EXTT4=
EXTT5=
EXTT6=
EXTT7=
EXTT8=
EXTT9=
PLAYORDER=
